<svg width="28" height="28" viewBox="0 0 28 28" fill="none" xmlns="http://www.w3.org/2000/svg">
<path d="M15.867 22.6333C15.517 23.3041 14.817 23.7708 14.0003 23.7708C13.1837 23.7708 12.4837 23.3041 12.1337 22.6333H10.792C11.2003 24.0041 12.4837 24.9958 13.9712 24.9958C15.4587 24.9958 16.742 24.0041 17.1503 22.6333H15.867Z" fill="#919699"/>
<path d="M20.5042 17.1208C19.4833 16.4208 19.2792 13.6791 19.1042 11.2583C19.075 10.85 19.0458 10.4416 19.0167 10.0333C18.9292 9.07082 18.5208 8.34165 17.9375 7.78748L16.9458 8.54582C17.3833 8.92498 17.7333 9.42082 17.7917 10.15C17.8208 10.5583 17.85 10.9375 17.8792 11.3458C18.1125 14.2916 18.3167 17.0916 19.8042 18.1125C20.825 18.8125 20.7083 19.425 20.7083 19.425C20.6792 19.5125 20.65 19.5416 20.6792 19.6291C20.6792 19.6291 20.6792 19.7458 20.5625 19.8625C20.4167 20.0083 20.0375 20.2416 18.9875 20.2416C18.1708 20.2416 17.325 20.2416 16.5958 20.2416C15.1375 20.2416 14 20.2416 14 20.2416C13.9708 20.2416 11.4625 20.2125 9.01252 20.2416C7.99168 20.2416 7.58335 20.0083 7.43752 19.8625C7.32085 19.7458 7.32085 19.6583 7.32085 19.6583C7.35002 19.5708 7.32085 19.5416 7.29168 19.425C7.29168 19.3958 7.17502 18.7833 8.19585 18.0833C9.68335 17.0333 9.91668 14.2625 10.1208 11.3166C10.15 10.9083 10.1792 10.5 10.2083 10.1208C10.4125 7.87498 13.2125 7.64165 13.8542 7.61248C13.9125 7.61248 13.9708 7.61248 13.9708 7.61248C13.9708 7.61248 14.0292 7.61248 14.0875 7.61248C14.8167 7.58332 15.4583 7.20415 15.8375 6.64998C16.1 6.27082 16.275 5.80415 16.275 5.30832C16.275 4.02498 15.2542 3.00415 13.9708 3.00415C12.6875 3.00415 11.6667 4.05415 11.6667 5.30832C11.6667 5.80415 11.8125 6.27082 12.1042 6.64998C10.6458 7.05832 9.12918 8.04998 8.98335 10.0041C8.95418 10.4125 8.92502 10.8208 8.89585 11.2291C8.72085 13.65 8.51668 16.3916 7.49585 17.0916C6.00835 18.1125 6.03752 19.25 6.06668 19.6291C6.06668 19.9208 6.18335 20.3291 6.47502 20.6791C6.94168 21.2041 7.78752 21.4666 8.92502 21.4666C8.95418 21.4666 8.98335 21.4666 9.01252 21.4666C11.4333 21.4375 13.9417 21.4666 14 21.4666C14.0292 21.4666 16.5375 21.4375 18.9583 21.4666C20.125 21.4666 21 21.2041 21.4958 20.6791C21.8167 20.3291 21.9042 19.9208 21.9042 19.6291C21.9917 19.2791 21.9917 18.1708 20.5042 17.1208ZM12.9208 5.36665C12.9208 4.78332 13.3875 4.28748 14 4.28748C14.5833 4.28748 15.0792 4.75415 15.0792 5.36665C15.0792 5.94998 14.6417 6.38748 14.0583 6.41665H14.0292H14H13.9708C13.3875 6.38748 12.9208 5.92082 12.9208 5.36665Z" fill="#919699"/>
<path d="M14.0003 16.3042C13.6795 16.3042 13.417 16.0417 13.417 15.7209V10.7042C13.417 10.3833 13.6795 10.1208 14.0003 10.1208C14.3212 10.1208 14.5837 10.3833 14.5837 10.7042V15.7209C14.5837 16.0417 14.3212 16.3042 14.0003 16.3042Z" fill="#919699"/>
<path d="M14.0003 18.2292C14.3225 18.2292 14.5837 17.968 14.5837 17.6458C14.5837 17.3237 14.3225 17.0625 14.0003 17.0625C13.6782 17.0625 13.417 17.3237 13.417 17.6458C13.417 17.968 13.6782 18.2292 14.0003 18.2292Z" fill="#919699"/>
</svg>
