<svg id="Layer_1" data-name="Layer 1" xmlns="http://www.w3.org/2000/svg" xmlns:xlink="http://www.w3.org/1999/xlink" viewBox="0 0 61.74 84.67"><defs><style>.cls-1{fill:none;}.cls-2{clip-path:url(#clip-path);}.cls-3{fill:#494b4d;}.cls-4{fill:#fff;}</style><clipPath id="clip-path" transform="translate(-32.63 -21.17)"><rect class="cls-1" x="32.63" y="21.17" width="61.74" height="84.67"/></clipPath></defs><title>ic_portrait</title><g class="cls-2"><path class="cls-3" d="M92,21.17H35a2.37,2.37,0,0,0-2.38,2.35v80A2.37,2.37,0,0,0,35,105.83H92a2.37,2.37,0,0,0,2.38-2.35v-80A2.37,2.37,0,0,0,92,21.17ZM84.87,70.56a2.37,2.37,0,0,1-2.37,2.35h-38a2.37,2.37,0,0,1-2.37-2.35V32.93a2.37,2.37,0,0,1,2.37-2.36h38a2.37,2.37,0,0,1,2.37,2.36Z" transform="translate(-32.63 -21.17)"/><path class="cls-3" d="M48.78,65.85c-.71,1.06-.12,2,1.19,2H77.15a1.42,1.42,0,0,0,1.43-2.12L71.34,48.92c-.48-1.18-1.43-1.18-2-.12l-4.4,8.47a2,2,0,0,1-3,.7L58,55a2.08,2.08,0,0,0-3.09.59Z" transform="translate(-32.63 -21.17)"/><path class="cls-3" d="M53.05,44.69a3.42,3.42,0,1,0-3.44-3.42A3.44,3.44,0,0,0,53.05,44.69Z" transform="translate(-32.63 -21.17)"/><path class="cls-4" d="M66.11,92.55a2.67,2.67,0,0,1-1.3,4.82,20.09,20.09,0,0,1-3.8,0c-.48,0-.72-.36-.72-.83V88.9c0-.47.36-.7.84-.82h3.32A2.47,2.47,0,0,1,66.35,92,.7.7,0,0,1,66.11,92.55ZM62,96h2.49a1.1,1.1,0,0,0,1.19-1.06,1.12,1.12,0,0,0-1.07-1.3,20.66,20.66,0,0,0-2.61,0Zm0-6v2.12h2.37a1,1,0,0,0,1-1.06c0-.59-.24-.94-.71-.94A9.74,9.74,0,0,0,62,90Z" transform="translate(-32.63 -21.17)"/><path class="cls-4" d="M54.6,95.13H53.41a.65.65,0,0,0-.71.47A7.11,7.11,0,0,1,52.1,97,.9.9,0,0,1,51,97.6a.74.74,0,0,1-.35-1.06c1.07-2.47,2-4.93,3.08-7.4a.79.79,0,0,1,.84-.59.75.75,0,0,1,.71.59c1.07,2.47,2,4.93,3.09,7.4A.74.74,0,0,1,58,97.6c-.48.24-.83,0-1.07-.59s-.36-1.05-.59-1.52a1.66,1.66,0,0,0-.48-.36Zm.95-1.53c-.36-.82-.72-1.64-1.07-2.58-.36.94-.72,1.64-1.07,2.58Z" transform="translate(-32.63 -21.17)"/><path class="cls-4" d="M68.61,92.66A4.52,4.52,0,0,1,71,88.78a4.61,4.61,0,0,1,4.75.12c.59.35.71.71.36,1.18a.79.79,0,0,1-1.19.11,3.07,3.07,0,0,0-3.92.47,3.69,3.69,0,0,0-.24,4.24,3.09,3.09,0,0,0,3.92.82c.12-.12.24-.12.48-.23a.81.81,0,0,1,1.06.35c.24.35.12.7-.23,1.06a5.46,5.46,0,0,1-3,.82A4.93,4.93,0,0,1,68.61,92.66Z" transform="translate(-32.63 -21.17)"/></g></svg>