<svg width="32" height="32" viewBox="0 0 32 32" fill="none" xmlns="http://www.w3.org/2000/svg">
<path d="M15.9997 26.6668C21.8907 26.6668 26.6663 21.8912 26.6663 16.0002C26.6663 10.1091 21.8907 5.3335 15.9997 5.3335C10.1086 5.3335 5.33301 10.1091 5.33301 16.0002C5.33301 21.8912 10.1086 26.6668 15.9997 26.6668Z" fill="url(#paint0_linear)"/>
<path d="M13.6004 21C13.3337 21 13.0671 20.9 12.9004 20.7L9.70039 17.5C9.30039 17.1 9.30039 16.4667 9.70039 16.1C10.1004 15.7 10.7337 15.7 11.1004 16.1L13.6004 18.6L20.9004 11.3C21.3004 10.9 21.9337 10.9 22.3004 11.3C22.7004 11.7 22.7004 12.3333 22.3004 12.7L14.3004 20.7C14.1337 20.9 13.8671 21 13.6004 21Z" fill="white"/>
<defs>
<linearGradient id="paint0_linear" x1="26.6663" y1="5.3335" x2="4.95877" y2="26.7887" gradientUnits="userSpaceOnUse">
<stop offset="0.00552486" stop-color="#FF7F7F"/>
<stop offset="1" stop-color="#7FADFF"/>
</linearGradient>
</defs>
</svg>
