<svg width="28" height="28" viewBox="0 0 28 28" fill="none" xmlns="http://www.w3.org/2000/svg">
<path d="M17.0335 15.05C18.9584 13.9709 20.2709 11.9293 20.2709 9.56684C20.2709 6.12525 17.4709 3.29614 14.0002 3.29614C10.5294 3.29614 7.72949 6.12525 7.72949 9.56684C7.72949 11.9293 9.04196 13.9709 10.9669 15.05C11.8711 15.5459 12.8919 15.8375 14.0002 15.8375C15.6918 15.8375 17.2668 16.2167 18.6376 16.8583L19.5126 15.9834C18.7542 15.6042 17.9084 15.2542 17.0335 15.05ZM8.89613 9.56684C8.89613 6.7669 11.1711 4.46278 14.0002 4.46278C16.8293 4.46278 19.1042 6.73773 19.1042 9.56684C19.1042 12.3668 16.8293 14.6709 14.0002 14.6709C11.1711 14.6709 8.89613 12.3959 8.89613 9.56684Z" fill="#919699"/>
<path d="M13.7956 23.508H4.66664C4.66664 20.8539 6.3291 18.4914 8.80821 17.1206C8.86655 17.0915 8.92488 17.0623 8.98321 17.0331C9.12904 16.9165 9.21654 16.7706 9.21654 16.5665C9.21654 16.2456 8.95404 15.9832 8.60405 15.9832C8.54572 15.9832 8.48739 15.9832 8.42906 16.0123C8.34156 16.0415 8.28323 16.0998 8.19573 16.129C5.39579 17.7039 3.52917 20.4164 3.5 23.508C3.5 23.8871 3.52917 24.2955 3.5875 24.6746H4.75414H13.7664C13.7664 24.6163 13.7664 24.558 13.7664 24.4996V23.508H13.7956Z" fill="#919699"/>
<path d="M23.3329 23.5082H20.9996L19.833 24.6748H23.2454H24.4121C24.4704 24.2956 24.4996 23.9165 24.4996 23.5082C24.4996 22.4873 24.2954 21.4957 23.9162 20.5916L23.0121 21.4957C23.2163 22.1374 23.3329 22.8082 23.3329 23.5082Z" fill="#919699"/>
<path d="M24.9085 17.0915L22.896 15.079C22.6627 14.8457 22.3127 14.8457 22.0794 15.079L15.1379 21.9914C15.0212 22.1081 14.9629 22.2539 14.9629 22.3997V24.4997C14.9629 24.8205 15.2254 25.083 15.5462 25.083H17.5295C17.6753 25.083 17.8212 25.0247 17.9378 24.908L24.9085 17.9373C25.1418 17.704 25.1418 17.3248 24.9085 17.0915ZM22.4877 16.3332L23.6835 17.529L23.1585 18.054L21.9627 16.8582L22.4877 16.3332ZM17.267 23.9164H16.1004V22.6622L21.0878 17.704L22.2836 18.8998L17.267 23.9164Z" fill="#919699"/>
</svg>
