<svg width="28" height="28" viewBox="0 0 28 28" fill="none" xmlns="http://www.w3.org/2000/svg">
<g clip-path="url(#clip0)">
<path d="M13.8921 24.7683C13.8338 24.7683 13.7755 24.7683 13.688 24.7392C8.84629 23.0475 7.12546 20.3933 6.07546 18.0017C5.11296 15.8142 4.82129 6.88916 4.82129 6.50999C4.82129 6.33499 4.87962 6.15999 5.02546 6.04333C5.17129 5.92666 5.34629 5.89749 5.52129 5.92666C11.238 7.23916 13.3088 4.20583 13.3963 4.08916C13.513 3.91416 13.688 3.82666 13.8921 3.82666C14.0963 3.82666 14.2713 3.91416 14.388 4.08916C14.4755 4.23499 16.5755 7.26833 22.263 5.92666C22.438 5.89749 22.613 5.92666 22.7588 6.04333C22.9046 6.15999 22.963 6.33499 22.963 6.50999C22.963 6.88916 22.6421 15.8142 21.7088 18.0017C20.6588 20.3933 18.938 23.0475 14.0671 24.7392C14.0088 24.7683 13.9505 24.7683 13.8921 24.7683ZM5.98796 7.23916C6.10462 10.1558 6.48379 16.0475 7.12546 17.5642C8.05879 19.6642 9.60462 22.0267 13.8921 23.5725C18.1796 22.0267 19.7255 19.6642 20.6296 17.535C21.3005 16.0475 21.6505 10.1558 21.7671 7.20999C17.2463 8.02666 14.8255 6.27666 13.863 5.28499C12.9296 6.27666 10.538 8.02666 5.98796 7.23916Z" fill="#919699"/>
<path d="M14.5333 14.8223C14.5333 14.4723 14.2417 14.1807 13.8917 14.1807C13.5417 14.1807 13.25 14.4723 13.25 14.8223C13.25 15.0557 13.3667 15.2598 13.5708 15.3765V16.4557C13.5708 16.6307 13.7167 16.7765 13.8917 16.7765C14.0667 16.7765 14.2125 16.6307 14.2125 16.4557V15.3765C14.4167 15.289 14.5333 15.0848 14.5333 14.8223Z" fill="#919699"/>
<path d="M17.8009 12.1098H16.4301V10.8848V10.7973C16.3717 9.42645 15.2634 8.31812 13.8926 8.31812C12.4926 8.31812 11.3259 9.45561 11.3259 10.8848V12.1098H9.95508C9.72174 12.1098 9.51758 12.3139 9.51758 12.5473V18.4098C9.51758 18.6431 9.72174 18.8473 9.95508 18.8473H17.7717C18.0051 18.8473 18.2092 18.6431 18.2092 18.4098V12.5473C18.2384 12.3139 18.0342 12.1098 17.8009 12.1098ZM11.9384 10.5931C12.0842 9.65978 12.9009 8.90145 13.8926 8.90145C14.8842 8.90145 15.7009 9.63061 15.8467 10.5931C15.8467 10.6806 15.8759 10.7973 15.8759 10.8848V11.1764V12.1098H11.9092V11.1764V10.8848C11.9092 10.7681 11.9092 10.6806 11.9384 10.5931ZM17.3634 17.9723H10.3926V12.9848H17.3342V17.9723H17.3634Z" fill="#919699"/>
</g>
<defs>
<clipPath id="clip0">
<rect width="28" height="28" fill="white"/>
</clipPath>
</defs>
</svg>
