<svg width="28" height="28" viewBox="0 0 28 28" fill="none" xmlns="http://www.w3.org/2000/svg">
<path d="M24.0911 13.5917L23.6828 13.1834L19.1036 8.6042C18.8703 8.37087 18.5203 8.37087 18.287 8.6042C18.0536 8.83753 18.0536 9.18753 18.287 9.42087L22.2536 13.4167H10.0911C9.77031 13.4167 9.50781 13.6792 9.50781 14C9.50781 14.3209 9.77031 14.5834 10.0911 14.5834H22.2828L18.2578 18.5792C18.0245 18.8125 18.0245 19.1625 18.2578 19.3959C18.3745 19.5125 18.5203 19.5709 18.6661 19.5709C18.812 19.5709 18.9578 19.5125 19.0745 19.3959L23.6536 14.8167L24.4995 14L24.0911 13.5917Z" fill="#919699"/>
<path d="M8.34115 23.3333C6.73698 23.3333 5.42448 22.0208 5.42448 20.4167V7.58333C5.42448 5.97917 6.73698 4.66667 8.34115 4.66667H14.7578V3.5H8.34115C6.09531 3.5 4.25781 5.3375 4.25781 7.58333V20.4167C4.25781 22.6625 6.09531 24.5 8.34115 24.5H14.7578V23.3333H8.34115Z" fill="#919699"/>
</svg>
