<svg width="48" height="48" viewBox="0 0 48 48" fill="none" xmlns="http://www.w3.org/2000/svg">
<path d="M46.7604 41.9493L17.4342 12.527C17.0622 12.1551 16.4502 12.1551 16.0782 12.527L12.6345 15.9828C12.2625 16.3548 12.2625 16.9668 12.6345 17.3387L41.9607 46.761C42.3327 47.133 42.9446 47.133 43.3166 46.761L46.7484 43.3052C47.1324 42.9332 47.1324 42.3213 46.7604 41.9493ZM43.7006 43.6652L43.6886 43.6772C43.3166 44.0492 42.7047 44.0492 42.3327 43.6772L19.546 20.8185C19.1741 20.4466 19.1741 19.8346 19.546 19.4626L19.558 19.4506C19.93 19.0786 20.542 19.0786 20.914 19.4506L43.7006 42.3093C44.0726 42.6812 44.0726 43.2932 43.7006 43.6652Z" fill="#494B4D"/>
<path d="M16.4126 7.69058C17.2045 7.69058 17.8525 7.04262 17.8525 6.25067V2.3989C17.8525 1.60695 17.2045 0.958984 16.4126 0.958984C15.6206 0.958984 14.9727 1.60695 14.9727 2.3989V6.25067C14.9727 7.04262 15.6206 7.69058 16.4126 7.69058Z" fill="#494B4D"/>
<path d="M16.4126 24.873C15.6206 24.873 14.9727 25.521 14.9727 26.313V30.1647C14.9727 30.9567 15.6206 31.6046 16.4126 31.6046C17.2045 31.6046 17.8525 30.9567 17.8525 30.1647V26.313C17.8525 25.521 17.2045 24.873 16.4126 24.873Z" fill="#494B4D"/>
<path d="M25.7627 16.102C25.7627 16.894 26.4107 17.5419 27.2026 17.5419H31.0424C31.8343 17.5419 32.4823 16.894 32.4823 16.102C32.4823 15.3101 31.8343 14.6621 31.0424 14.6621H27.2026C26.4107 14.6621 25.7627 15.3101 25.7627 16.102Z" fill="#494B4D"/>
<path d="M7.66658 16.102C7.66658 15.3101 7.01862 14.6621 6.22667 14.6621H2.3989C1.60695 14.6621 0.958984 15.3101 0.958984 16.102C0.958984 16.894 1.60695 17.5419 2.3989 17.5419H6.23867C7.01862 17.5419 7.66658 16.894 7.66658 16.102Z" fill="#494B4D"/>
<path d="M8.25504 10.1985C8.53103 10.4744 8.89101 10.6184 9.27498 10.6184C9.65896 10.6184 10.0189 10.4624 10.2949 10.1985C10.8589 9.63449 10.8589 8.72254 10.2949 8.15857L7.78707 5.63872C7.51109 5.36274 7.15111 5.21875 6.76713 5.21875C6.38316 5.21875 6.02318 5.37474 5.74719 5.63872C5.18323 6.20269 5.18323 7.11464 5.74719 7.6786L8.25504 10.1985Z" fill="#494B4D"/>
<path d="M9.27394 22.0645C8.88996 22.0645 8.52998 22.2204 8.254 22.4844L5.74615 25.0043C5.47016 25.2803 5.32617 25.6402 5.32617 26.0242C5.32617 26.4082 5.47016 26.7682 5.74615 27.0442C6.02213 27.3201 6.38211 27.4641 6.76609 27.4641C7.15006 27.4641 7.51004 27.3081 7.78603 27.0442L10.2939 24.5243C10.8578 23.9603 10.8578 23.0484 10.2939 22.4844C10.0179 22.2204 9.65791 22.0645 9.27394 22.0645Z" fill="#494B4D"/>
<path d="M23.5659 10.6184C23.9499 10.6184 24.3098 10.4624 24.5858 10.1985L27.0937 7.6786C27.6576 7.11464 27.6576 6.20269 27.0937 5.63872C26.8177 5.36274 26.4577 5.21875 26.0737 5.21875C25.6898 5.21875 25.3298 5.37474 25.0538 5.63872L22.546 8.15857C22.27 8.43456 22.126 8.79454 22.126 9.17851C22.126 9.56249 22.27 9.92247 22.546 10.1985C22.8219 10.4624 23.1819 10.6184 23.5659 10.6184Z" fill="#494B4D"/>
</svg>
