<svg width="32" height="30" viewBox="0 0 32 30" fill="none" xmlns="http://www.w3.org/2000/svg">
<path d="M30.0341 14.4566C28.8559 12.8801 27.2049 11.7092 25.3739 11.1199C25.4489 10.6378 25.479 10.148 25.479 9.65816C25.479 7.07908 24.5034 4.65306 22.7249 2.83163C20.9539 1.00255 18.59 0 16.0761 0C13.5621 0 11.1983 1.00255 9.42728 2.83163C7.64877 4.65306 6.67321 7.07908 6.67321 9.65816C6.67321 10.148 6.71073 10.6378 6.77827 11.1199C4.93972 11.7092 3.29628 12.8878 2.11811 14.4566C0.842378 16.1556 0.166992 18.1913 0.166992 20.3418C0.166992 22.9209 1.14255 25.3469 2.92107 27.1684C4.69958 28.9898 7.06343 30 9.56987 30C12.0163 30 14.3126 29.051 16.0761 27.3214C17.8321 29.051 20.1359 30 22.5823 30C25.0962 30 27.4601 28.9974 29.2311 27.1684C31.0096 25.3469 31.9852 22.9209 31.9852 20.3418C31.9852 18.1913 31.3098 16.1556 30.0341 14.4566ZM16.0761 1.95153C20.2109 1.95153 23.5804 5.41071 23.5804 9.65816C23.5804 10.0179 23.5579 10.3776 23.5053 10.7372C23.1977 10.7066 22.89 10.6913 22.5748 10.6913C20.1284 10.6913 17.8321 11.6403 16.0686 13.3699C14.3126 11.6403 12.0088 10.6913 9.56236 10.6913C9.25468 10.6913 8.93951 10.7066 8.63183 10.7372C8.5868 10.3852 8.55679 10.0179 8.55679 9.65816C8.5718 5.40306 11.9412 1.95153 16.0761 1.95153ZM16.0761 17.3648C15.941 17.3648 15.7984 17.3571 15.6633 17.3495C15.7834 17.0587 15.9185 16.7755 16.0761 16.5C16.2337 16.7755 16.3687 17.0587 16.4888 17.3495C16.3537 17.3648 16.2112 17.3648 16.0761 17.3648ZM12.5791 27.4056C11.626 27.8342 10.6205 28.0485 9.56987 28.0485C5.435 28.0485 2.06558 24.5893 2.06558 20.3418C2.06558 18.6352 2.59838 17.0128 3.61146 15.6582C4.53449 14.426 5.81772 13.4923 7.25104 13.0102C7.74632 14.3801 8.54928 15.6352 9.59238 16.6531C10.6355 17.6786 11.9112 18.4439 13.2845 18.8801C13.2094 19.3622 13.1794 19.852 13.1794 20.3418C13.1794 22.3163 13.7573 24.2143 14.8454 25.8291C14.185 26.4949 13.4196 27.023 12.5791 27.4056ZM13.7573 16.9898C11.6861 16.301 10.0051 14.7092 9.15713 12.6505C9.29221 12.6429 9.43479 12.6352 9.56987 12.6352C10.613 12.6352 11.626 12.8495 12.5791 13.2781C13.4196 13.6607 14.185 14.1888 14.8379 14.8546C14.3951 15.5204 14.0274 16.2321 13.7573 16.9898ZM16.0761 24.1837C15.4232 23.0204 15.078 21.6964 15.078 20.3418C15.078 19.9821 15.1005 19.6224 15.1531 19.2628C15.772 19.3239 16.3952 19.3239 17.0141 19.2628C17.0591 19.6148 17.0892 19.9821 17.0892 20.3418C17.0742 21.6964 16.729 23.0204 16.0761 24.1837ZM19.5731 13.2781C20.5261 12.8495 21.5317 12.6352 22.5823 12.6352C22.7174 12.6352 22.86 12.6429 22.995 12.6505C22.1471 14.7092 20.4661 16.301 18.3949 16.9898C18.1248 16.2398 17.757 15.5204 17.3143 14.8546C17.9672 14.1888 18.7326 13.6607 19.5731 13.2781ZM22.5823 28.0485C21.5392 28.0485 20.5261 27.8342 19.5731 27.4056C18.7326 27.023 17.9672 26.4949 17.3143 25.8291C18.4024 24.2143 18.9802 22.324 18.9802 20.3418C18.9802 19.852 18.9427 19.3622 18.8752 18.8801C20.2485 18.4439 21.5167 17.6786 22.5673 16.6531C23.6029 15.6352 24.4058 14.3878 24.9086 13.0102C26.3419 13.4923 27.6252 14.4184 28.5482 15.6582C29.5613 17.0128 30.0941 18.6352 30.0941 20.3418C30.0866 24.5969 26.7172 28.0485 22.5823 28.0485Z" fill="white"/>
</svg>
