<svg width="39" height="33" viewBox="0 0 39 33" fill="none" xmlns="http://www.w3.org/2000/svg">
<path d="M26.5529 1C23.7952 1 21.1719 3.01503 19.8314 4.39478C19.5054 4.73035 19.3457 5.1816 19.3457 5.64947V32.4495C19.3457 28.2563 22.4033 27.2079 23.9321 27.2079H35.0361C36.1406 27.2079 37.0361 26.3125 37.0361 25.2079V3C37.0361 1.89543 36.1419 1 35.0373 1H26.5529Z" stroke="white" stroke-width="2"/>
<path d="M11.4832 1C14.2409 1 16.8642 3.01503 18.2047 4.39478C18.5307 4.73035 18.6904 5.1816 18.6904 5.64947V32.4495C18.6904 28.2563 15.6328 27.2079 14.104 27.2079H3.00007C1.8955 27.2079 1.00007 26.3125 1.00007 25.2079V3C1.00007 1.89543 1.89426 1 2.99883 1H11.4832Z" stroke="white" stroke-width="2"/>
</svg>
