<svg width="46" height="46" viewBox="0 0 46 46" fill="none" xmlns="http://www.w3.org/2000/svg">
<path d="M37.0873 14.9492L34.7873 17.2492C39.6748 19.8367 41.9748 23.8617 42.8373 25.8742C40.8248 28.4617 34.7873 34.7867 22.7123 34.7867C20.6998 34.7867 19.2623 34.4992 17.5373 34.2117L15.2373 36.5117C17.5373 37.3742 20.1248 37.6617 22.7123 37.6617C39.0998 37.6617 45.9998 26.1617 45.9998 26.1617C45.9998 26.1617 44.2748 19.2617 37.0873 14.9492Z" fill="#494B4D"/>
<path d="M34.4996 20.4133C34.4996 19.5508 34.4996 18.6883 34.2121 18.1133L20.4121 31.6258C21.2746 31.6258 22.1371 31.9133 22.9996 31.9133C29.3246 31.9133 34.4996 26.7383 34.4996 20.4133Z" fill="#494B4D"/>
<path d="M43.9875 0L31.3375 12.65C29.0375 12.075 26.1625 11.5 23 11.5C3.7375 11.5 0 26.1625 0 26.1625C0 26.1625 2.875 31.3375 9.4875 34.7875L0 43.9875V46H2.0125L46 2.0125V0H43.9875ZM11.5 32.4875C6.9 30.475 4.3125 27.3125 3.1625 25.875C4.025 23.8625 6.325 19.55 12.075 16.675C11.7875 17.825 11.5 18.975 11.5 20.4125C11.5 23.575 12.9375 26.7375 15.2375 28.75L11.5 32.4875ZM17.825 22.7125L14.95 23.2875C14.95 23.2875 14.0875 21.85 14.0875 19.8375C14.0875 17.5375 15.2375 15.525 15.2375 15.525C16.675 14.6625 18.975 14.6625 18.975 14.6625C18.975 14.6625 17.5375 17.25 17.5375 19.55C17.25 21.5625 17.825 22.7125 17.825 22.7125Z" fill="#494B4D"/>
</svg>
