<svg width="56" height="56" viewBox="0 0 56 56" fill="none" xmlns="http://www.w3.org/2000/svg">
<path d="M42.4082 30.0992L26.4832 14.1742L19.7749 7.52422C19.1332 6.88255 18.0249 6.88255 17.3832 7.52422C16.7415 8.16589 16.7415 9.27422 17.3832 9.91589L22.8665 15.3992L8.1082 30.0992C7.46654 30.7409 7.46654 31.8492 8.1082 32.4909L24.0915 48.4742C24.4415 48.8242 24.8499 48.9992 25.3165 48.9992C25.7249 48.9992 26.1915 48.8242 26.5415 48.4742L42.5249 32.4909C42.8165 32.1992 43.0499 31.7326 43.0499 31.2659C43.0499 30.7992 42.7582 30.4492 42.4082 30.0992ZM25.2582 17.7909L38.7915 31.3242H11.7249L25.2582 17.7909Z" fill="#494B4D"/>
<path d="M43.2252 48.9418C40.8919 48.9418 39.3169 48.1835 38.5585 46.7251C36.6335 42.9335 41.7085 35.8751 42.2919 35.0585C42.5252 34.7668 42.8752 34.5918 43.2252 34.5918C43.5752 34.5918 43.9252 34.7668 44.1585 35.0585C44.7419 35.8751 49.8169 42.9335 47.8919 46.7251C47.1335 48.2418 45.5585 48.9418 43.2252 48.9418ZM43.2252 37.7418C41.4752 40.4835 39.8419 44.1001 40.6002 45.6751C40.9502 46.3168 41.8252 46.6668 43.2252 46.6668C44.6252 46.6668 45.5002 46.3168 45.8502 45.6751C46.6669 44.1585 45.0335 40.4835 43.2252 37.7418Z" fill="#494B4D"/>
</svg>
