<svg width="56" height="56" viewBox="0 0 56 56" fill="none" xmlns="http://www.w3.org/2000/svg">
<path d="M14.0577 36.3409C14.0577 33.8326 12.2493 31.7909 9.91602 31.3242V41.3576C12.2493 40.8909 14.0577 38.8492 14.0577 36.3409Z" fill="#919699"/>
<path d="M34.9423 13.5917C36.809 13.5917 38.3256 12.25 38.6756 10.5H31.209C31.5007 12.25 33.0757 13.5917 34.9423 13.5917Z" fill="#919699"/>
<path d="M41.8251 29.8672C41.1835 29.8672 40.7168 30.3922 40.7168 30.9755C40.7168 31.6172 41.2418 32.0839 41.8251 32.0839C42.4668 32.0839 42.9335 31.5589 42.9335 30.9755C42.9335 30.3339 42.4668 29.8672 41.8251 29.8672Z" fill="#919699"/>
<path d="M13.1828 12.775C14.2328 12.775 15.1078 11.9 15.1078 10.85C15.1078 10.7333 15.1078 10.6167 15.0495 10.5H11.3161C11.3161 10.6167 11.2578 10.7333 11.2578 10.85C11.2578 11.9 12.1328 12.775 13.1828 12.775Z" fill="#919699"/>
<path d="M14.6415 21.1172C13.9999 21.1172 13.5332 21.6422 13.5332 22.2255C13.5332 22.8672 14.0582 23.3339 14.6415 23.3339C15.2832 23.3339 15.7499 22.8089 15.7499 22.2255C15.7499 21.6422 15.2249 21.1172 14.6415 21.1172Z" fill="#919699"/>
<path d="M19.7177 42.1172C19.076 42.1172 18.6094 42.6422 18.6094 43.2255C18.6094 43.8672 19.1344 44.3338 19.7177 44.3338C20.3594 44.3338 20.826 43.8088 20.826 43.2255C20.8844 42.6422 20.3594 42.1172 19.7177 42.1172Z" fill="#919699"/>
<path d="M27.7082 44.8008C26.5415 44.8008 25.4915 45.3258 24.9082 46.0841H30.5082C29.9249 45.3258 28.8749 44.8008 27.7082 44.8008Z" fill="#919699"/>
<path d="M24.7921 14.2341C23.7421 13.6508 22.4004 14.0008 21.8171 15.0508C21.6421 15.3425 21.5837 15.6341 21.5254 15.9258H25.9004C25.7837 15.2258 25.4337 14.5841 24.7921 14.2341Z" fill="#919699"/>
<path d="M40.1326 43.0508C38.1492 43.0508 36.3992 44.2758 35.6992 46.0841H44.5076C43.8659 44.3341 42.1159 43.0508 40.1326 43.0508Z" fill="#919699"/>
<path d="M42.9922 19.1915C42.9922 20.7082 44.1005 21.9332 45.5005 22.2249V16.1582C44.0422 16.3915 42.9922 17.6749 42.9922 19.1915Z" fill="#919699"/>
<path d="M36.9836 32.6094H18.4336V34.9427H36.9836V32.6094Z" fill="#919699"/>
<path d="M36.9836 37.334H18.4336V39.6673H36.9836V37.334Z" fill="#919699"/>
<path d="M36.9823 15.8672H25.899H21.524H18.4323C17.7906 15.8672 17.2656 16.3922 17.2656 17.0339V27.4172C17.2656 28.0589 17.7906 28.5839 18.4323 28.5839H36.9823C37.624 28.5839 38.149 28.0589 38.149 27.4172V17.0339C38.149 16.3922 37.624 15.8672 36.9823 15.8672ZM35.8156 26.3089H19.599V18.2005H23.2156H24.149H35.8156V26.3089Z" fill="#919699"/>
<path d="M46.9583 49.0006H8.45833C7.64167 49.0006 7 48.359 7 47.5423V9.04232C7 8.22565 7.64167 7.58398 8.45833 7.58398H46.9583C47.775 7.58398 48.4167 8.22565 48.4167 9.04232V47.5423C48.4167 48.359 47.775 49.0006 46.9583 49.0006ZM9.91667 46.084H45.5V10.5007H9.91667V46.084Z" fill="#919699"/>
</svg>
