<svg width="56" height="56" viewBox="0 0 56 56" fill="none" xmlns="http://www.w3.org/2000/svg">
<path d="M41.534 13.2422H41.009H37.7423C37.2756 13.2422 36.8673 13.6505 36.8673 14.1172C36.8673 14.5839 37.2756 14.9922 37.7423 14.9922H39.784L35.409 19.3672C35.059 19.7172 35.059 20.2422 35.409 20.5922C35.584 20.7672 35.8173 20.8255 36.0506 20.8255C36.284 20.8255 36.5173 20.7672 36.6923 20.5922L41.0673 16.2172V18.2589C41.0673 18.7255 41.4756 19.1339 41.9423 19.1339C42.409 19.1339 42.8173 18.7255 42.8173 18.2589V14.9922V14.4672V13.2422H41.534Z" fill="#919699"/>
<path d="M42.7591 42.116V41.591V38.3244C42.7591 37.8577 42.3508 37.4493 41.8841 37.4493C41.4174 37.4493 41.0091 37.8577 41.0091 38.3244V40.366L36.6341 35.991C36.2841 35.641 35.7591 35.641 35.4091 35.991C35.2341 36.166 35.1758 36.3993 35.1758 36.6327C35.1758 36.866 35.2341 37.0994 35.4091 37.2744L39.7841 41.6494H37.7424C37.2758 41.6494 36.8674 42.0577 36.8674 42.5244C36.8674 42.991 37.2758 43.3994 37.7424 43.3994H41.0091H41.5341H42.7591V42.116Z" fill="#919699"/>
<path d="M13.8829 13.2422H14.4079H17.6746C18.1413 13.2422 18.5496 13.6505 18.5496 14.1172C18.5496 14.5839 18.1413 14.9922 17.6746 14.9922H15.6329L20.0079 19.3672C20.3579 19.7172 20.3579 20.2422 20.0079 20.5922C19.8329 20.7672 19.5996 20.8255 19.3663 20.8255C19.1329 20.8255 18.8996 20.7672 18.7246 20.5922L14.3496 16.2172V18.2589C14.3496 18.7255 13.9413 19.1339 13.4746 19.1339C13.0079 19.1339 12.5996 18.7255 12.5996 18.2589V14.9922V14.4672V13.2422H13.8829Z" fill="#919699"/>
<path d="M12.6582 42.116V41.591V38.3244C12.6582 37.8577 13.0665 37.4493 13.5332 37.4493C13.9999 37.4493 14.4082 37.8577 14.4082 38.3244V40.366L18.7832 35.991C19.1332 35.641 19.6582 35.641 20.0082 35.991C20.1832 36.166 20.2415 36.3993 20.2415 36.6327C20.2415 36.866 20.1832 37.0994 20.0082 37.2744L15.6332 41.6494H17.6749C18.1415 41.6494 18.5499 42.0577 18.5499 42.5244C18.5499 42.991 18.1415 43.3994 17.6749 43.3994H14.4082H13.8832H12.6582V42.116Z" fill="#919699"/>
<path d="M26.3068 25.3155C26.3068 24.4988 25.6651 23.7988 24.7901 23.7988C23.9734 23.7988 23.2734 24.4405 23.2734 25.3155C23.2734 26.1322 23.9151 26.8322 24.7901 26.8322C25.6068 26.7738 26.3068 26.1322 26.3068 25.3155ZM24.7901 26.1322C24.3234 26.1322 23.9734 25.7822 23.9734 25.3155C23.9734 24.8488 24.3234 24.4988 24.7901 24.4988C25.2568 24.4988 25.6068 24.8488 25.6068 25.3155C25.6068 25.7238 25.2568 26.1322 24.7901 26.1322Z" fill="#919699"/>
<path d="M33.949 21.3496H33.3073H31.9656H21.4656C21.1156 21.3496 20.7656 21.6413 20.7656 22.0496V32.5496V33.8913V34.5329C20.7656 34.8829 21.0573 35.2329 21.4656 35.2329H33.949C34.299 35.2329 34.649 34.9413 34.649 34.5329V22.0496C34.649 21.6996 34.299 21.3496 33.949 21.3496ZM22.1656 32.6079V22.7496H32.024H33.249V28.9913L31.9656 27.5913L31.2073 26.7746C31.0906 26.5996 30.8573 26.5413 30.6823 26.5413C30.449 26.5413 30.274 26.6579 30.1573 26.8329L27.8823 30.2163L26.249 28.8163C26.1323 28.6996 25.9573 28.6413 25.7823 28.6413C25.6073 28.6413 25.4323 28.7579 25.3156 28.8746L22.1656 32.6079ZM33.3073 33.2496C33.3073 33.3663 33.3073 33.4246 33.249 33.5413V33.8329H32.899H22.8656L23.974 32.5496L25.899 30.2746L27.649 31.7329C27.824 31.8496 27.999 31.9079 28.174 31.9079C28.349 31.9079 28.524 31.7913 28.6406 31.6163L30.8573 28.2913L32.024 29.5163L33.249 30.9163L33.3073 30.9746V33.2496Z" fill="#919699"/>
<path d="M46.9583 7.58398H8.45833C7.64167 7.58398 7 8.22565 7 9.04232V47.5423C7 48.359 7.64167 49.0006 8.45833 49.0006H46.9583C47.775 49.0006 48.4167 48.359 48.4167 47.5423V9.04232C48.4167 8.22565 47.775 7.58398 46.9583 7.58398ZM45.5 46.084H29.1667V37.5673H26.25V46.084H9.91667V10.5007H26.25V19.0173H29.1667V10.5007H45.5V46.084Z" fill="#919699"/>
</svg>
