<svg id="Layer_1" data-name="Layer 1" xmlns="http://www.w3.org/2000/svg" viewBox="0 0 84.67 61.74"><defs><style>.cls-1{fill:#494b4d;}.cls-2{fill:#fff;}</style></defs><title>ic_landscape</title><path class="cls-1" d="M105.83,92V35a2.37,2.37,0,0,0-2.35-2.38h-80A2.37,2.37,0,0,0,21.17,35V92a2.37,2.37,0,0,0,2.35,2.38h80A2.37,2.37,0,0,0,105.83,92Zm-71-22.24a2.37,2.37,0,0,1-2.35-2.38V44.5a2.36,2.36,0,0,1,2.35-2.37H92.12a2.37,2.37,0,0,1,2.36,2.37V67.37a2.38,2.38,0,0,1-2.36,2.38Z" transform="translate(-21.17 -32.63)"/><path class="cls-1" d="M53.74,54.57l-14.25,11a1,1,0,0,0,.61,1.79H86.69a1,1,0,0,0,.9-1.43L79.52,49.13A1,1,0,0,0,78,48.77l-12.5,9.72a1,1,0,0,1-1,.13l-9.76-4.18A1,1,0,0,0,53.74,54.57Z" transform="translate(-21.17 -32.63)"/><path class="cls-1" d="M45.26,51.73a3.41,3.41,0,1,0-3.44-3.41A3.42,3.42,0,0,0,45.26,51.73Z" transform="translate(-21.17 -32.63)"/><path class="cls-2" d="M66.64,83.46a2.67,2.67,0,0,1-1.31,4.82,20.09,20.09,0,0,1-3.8,0c-.47,0-.71-.36-.71-.83V79.81c0-.47.36-.7.83-.82H65a2.47,2.47,0,0,1,1.9,3.88A.7.7,0,0,1,66.64,83.46Zm-4.16,3.41H65a1.09,1.09,0,0,0,1.18-1.06c0-.71-.23-1.18-1.06-1.3a20.82,20.82,0,0,0-2.62,0Zm0-6V83h2.38a1,1,0,0,0,1-1.06c0-.59-.24-.94-.71-.94A9.8,9.8,0,0,0,62.48,80.87Z" transform="translate(-21.17 -32.63)"/><path class="cls-2" d="M55.12,86H53.94a.66.66,0,0,0-.72.47,7.05,7.05,0,0,1-.59,1.41.89.89,0,0,1-1.07.59.74.74,0,0,1-.35-1.06c1.06-2.47,2-4.93,3.08-7.4a.79.79,0,0,1,.83-.59.75.75,0,0,1,.72.59c1.06,2.47,2,4.93,3.08,7.4a.74.74,0,0,1-.35,1.06c-.48.24-.83,0-1.07-.59s-.36-1-.6-1.52a1.47,1.47,0,0,0-.47-.36Zm1-1.53c-.35-.82-.71-1.64-1.07-2.58-.35.94-.71,1.64-1.06,2.58Z" transform="translate(-21.17 -32.63)"/><path class="cls-2" d="M69.13,83.57a4.53,4.53,0,0,1,2.38-3.88,4.61,4.61,0,0,1,4.75.12c.59.35.71.71.35,1.18a.78.78,0,0,1-1.19.11,3.06,3.06,0,0,0-3.91.47,3.69,3.69,0,0,0-.24,4.24,3.09,3.09,0,0,0,3.92.82c.12-.12.23-.12.47-.23a.82.82,0,0,1,1.07.35c.24.35.12.7-.24,1.06a5.45,5.45,0,0,1-3,.82A4.94,4.94,0,0,1,69.13,83.57Z" transform="translate(-21.17 -32.63)"/></svg>