<svg width="28" height="28" viewBox="0 0 28 28" fill="none" xmlns="http://www.w3.org/2000/svg">
<path d="M21.4375 10.9958C21.4667 11.2 21.4667 11.375 21.4667 11.5792L21.4375 10.9958Z" fill="#4F4F4F"/>
<path d="M21.4372 11.3166C21.4372 11.1999 21.4372 11.1124 21.4372 10.9958C21.1163 7.14575 17.8788 4.08325 13.9413 4.08325C10.0038 4.08325 6.76634 7.14575 6.44551 10.9958C6.44551 11.1124 6.44551 11.1999 6.44551 11.3166C4.63717 11.5499 3.20801 13.0958 3.20801 14.9624C3.20801 16.9166 4.75384 18.5208 6.67884 18.6374C7.14551 19.6583 8.83717 22.7791 12.5997 23.1874C12.483 22.9541 12.4247 22.7208 12.4247 22.4291C12.4247 22.2833 12.4538 22.1374 12.483 21.9916C9.82884 21.6124 8.42884 19.5416 7.90384 18.4916C8.28301 18.3749 8.63301 18.1999 8.95384 17.9958V16.3624V13.5916V11.9583C8.54551 11.6958 8.10801 11.4916 7.61217 11.3749C7.61217 11.2583 7.61217 11.1416 7.64134 10.9958C7.93301 7.78742 10.6455 5.24992 13.9413 5.24992C17.2372 5.24992 19.9497 7.78742 20.2705 10.9958C20.2705 11.1124 20.2705 11.2291 20.2997 11.3749C19.8038 11.4624 19.3663 11.6666 18.958 11.9583V13.5916V16.3624V17.9958C19.5413 18.4041 20.2705 18.6374 21.0288 18.6374C23.0413 18.6374 24.7038 17.0041 24.7038 14.9624C24.6747 13.0958 23.2747 11.5499 21.4372 11.3166ZM7.78717 12.6291V17.2958C7.67051 17.3249 7.58301 17.3833 7.46634 17.4124C7.29134 17.4708 7.08717 17.4708 6.88301 17.4708C6.67884 17.4708 6.47467 17.4416 6.29967 17.4124C5.19134 17.1208 4.37467 16.1583 4.37467 14.9624C4.37467 13.7666 5.19134 12.8041 6.29967 12.5416C6.47467 12.4833 6.67884 12.4833 6.88301 12.4833C7.08717 12.4833 7.29134 12.5124 7.46634 12.5416C7.58301 12.5708 7.67051 12.5999 7.78717 12.6291ZM21.583 17.3833C21.408 17.4416 21.2038 17.4416 20.9997 17.4416C20.7955 17.4416 20.5913 17.4124 20.4163 17.3833C20.2997 17.3541 20.183 17.3249 20.0955 17.2666V12.5999C20.2122 12.5708 20.2997 12.5124 20.4163 12.4833C20.5913 12.4249 20.7955 12.4249 20.9997 12.4249C21.2038 12.4249 21.408 12.4541 21.583 12.4833C22.6913 12.7458 23.508 13.7374 23.508 14.9041C23.508 16.0708 22.6913 17.1208 21.583 17.3833Z" fill="#919699"/>
<path d="M14.1456 20.7083C13.3581 20.7083 12.6873 21.2624 12.4831 21.9916C12.454 22.1374 12.4248 22.2833 12.4248 22.4291C12.4248 22.6916 12.4831 22.9541 12.5998 23.1874C12.8915 23.7708 13.4748 24.1499 14.1456 24.1499C15.079 24.1499 15.8665 23.3916 15.8665 22.4291C15.8665 21.4666 15.1081 20.7083 14.1456 20.7083ZM14.1456 22.9541C13.854 22.9541 13.5915 22.7208 13.5915 22.3999C13.5915 22.0791 13.8248 21.8458 14.1456 21.8458C14.4373 21.8458 14.6998 22.0791 14.6998 22.3999C14.6998 22.7208 14.4665 22.9541 14.1456 22.9541Z" fill="#919699"/>
<path d="M9.88789 8.60426C9.82956 8.60426 9.77122 8.57509 9.71289 8.54592C9.56706 8.45842 9.53789 8.28342 9.62539 8.13759C9.65456 8.10842 11.5796 5.39592 15.3712 6.15426C15.5171 6.18342 15.6337 6.32926 15.6046 6.50426C15.5754 6.65009 15.4296 6.76676 15.2546 6.73759C11.8712 6.06676 10.1504 8.45842 10.1212 8.48759C10.0921 8.57509 9.97539 8.60426 9.88789 8.60426Z" fill="#919699"/>
<path d="M17.1498 7.81689C17.0623 7.81689 16.9748 7.78772 16.9165 7.70022C16.829 7.61272 16.4206 7.32106 16.0706 7.11689C15.9248 7.02939 15.8956 6.85439 15.9539 6.70855C16.0123 6.56272 16.2164 6.53355 16.3623 6.59189C16.5373 6.70856 17.179 7.08772 17.3831 7.32106C17.4706 7.43772 17.4706 7.64189 17.3248 7.72939C17.2956 7.78772 17.2373 7.81689 17.1498 7.81689Z" fill="#919699"/>
</svg>
