<svg width="40" height="40" viewBox="0 0 40 40" fill="none" xmlns="http://www.w3.org/2000/svg">
<path d="M29.6666 9.45801H29.2916H26.9583C26.625 9.45801 26.3333 9.74967 26.3333 10.083C26.3333 10.4163 26.625 10.708 26.9583 10.708H28.4166L25.2916 13.833C25.0416 14.083 25.0416 14.458 25.2916 14.708C25.4166 14.833 25.5833 14.8747 25.75 14.8747C25.9166 14.8747 26.0833 14.833 26.2083 14.708L29.3333 11.583V13.0413C29.3333 13.3747 29.625 13.6663 29.9583 13.6663C30.2916 13.6663 30.5833 13.3747 30.5833 13.0413V10.708V10.333V9.45801H29.6666Z" fill="#494B4D"/>
<path d="M30.5415 30.0835V29.7085V27.3752C30.5415 27.0418 30.2499 26.7502 29.9165 26.7502C29.5832 26.7502 29.2915 27.0418 29.2915 27.3752V28.8335L26.1665 25.7085C25.9165 25.4585 25.5415 25.4585 25.2915 25.7085C25.1665 25.8335 25.1249 26.0002 25.1249 26.1668C25.1249 26.3335 25.1665 26.5002 25.2915 26.6252L28.4165 29.7502H26.9582C26.6249 29.7502 26.3332 30.0418 26.3332 30.3752C26.3332 30.7085 26.6249 31.0002 26.9582 31.0002H29.2915H29.6665H30.5415V30.0835Z" fill="#494B4D"/>
<path d="M9.91654 9.45801H10.2915H12.6249C12.9582 9.45801 13.2499 9.74967 13.2499 10.083C13.2499 10.4163 12.9582 10.708 12.6249 10.708H11.1665L14.2915 13.833C14.5415 14.083 14.5415 14.458 14.2915 14.708C14.1665 14.833 13.9999 14.8747 13.8332 14.8747C13.6665 14.8747 13.4999 14.833 13.3749 14.708L10.2499 11.583V13.0413C10.2499 13.3747 9.95821 13.6663 9.62488 13.6663C9.29154 13.6663 8.99988 13.3747 8.99988 13.0413V10.708V10.333V9.45801H9.91654Z" fill="#494B4D"/>
<path d="M9.04175 30.0835V29.7085V27.3752C9.04175 27.0418 9.33341 26.7502 9.66675 26.7502C10.0001 26.7502 10.2917 27.0418 10.2917 27.3752V28.8335L13.4167 25.7085C13.6667 25.4585 14.0417 25.4585 14.2917 25.7085C14.4167 25.8335 14.4584 26.0002 14.4584 26.1668C14.4584 26.3335 14.4167 26.5002 14.2917 26.6252L11.1667 29.7502H12.6251C12.9584 29.7502 13.2501 30.0418 13.2501 30.3752C13.2501 30.7085 12.9584 31.0002 12.6251 31.0002H10.2917H9.91675H9.04175V30.0835Z" fill="#494B4D"/>
<path d="M18.7914 18.0833C18.7914 17.5 18.3331 17 17.7081 17C17.1248 17 16.6248 17.4583 16.6248 18.0833C16.6248 18.6667 17.0831 19.1667 17.7081 19.1667C18.2914 19.125 18.7914 18.6667 18.7914 18.0833ZM17.7081 18.6667C17.3748 18.6667 17.1248 18.4167 17.1248 18.0833C17.1248 17.75 17.3748 17.5 17.7081 17.5C18.0414 17.5 18.2914 17.75 18.2914 18.0833C18.2914 18.375 18.0414 18.6667 17.7081 18.6667Z" fill="#494B4D"/>
<path d="M24.2498 15.25H23.7915H22.8331H15.3331C15.0831 15.25 14.8331 15.4583 14.8331 15.75V23.25V24.2083V24.6667C14.8331 24.9167 15.0415 25.1667 15.3331 25.1667H24.2498C24.4998 25.1667 24.7498 24.9583 24.7498 24.6667V15.75C24.7498 15.5 24.4998 15.25 24.2498 15.25ZM15.8331 23.2917V16.25H22.8748H23.7498V20.7083L22.8331 19.7083L22.2915 19.125C22.2081 19 22.0415 18.9583 21.9165 18.9583C21.7498 18.9583 21.6248 19.0417 21.5415 19.1667L19.9165 21.5833L18.7498 20.5833C18.6665 20.5 18.5415 20.4583 18.4165 20.4583C18.2915 20.4583 18.1665 20.5417 18.0831 20.625L15.8331 23.2917ZM23.7915 23.75C23.7915 23.8333 23.7915 23.875 23.7498 23.9583V24.1667H23.4998H16.3331L17.1248 23.25L18.4998 21.625L19.7498 22.6667C19.8748 22.75 19.9998 22.7917 20.1248 22.7917C20.2498 22.7917 20.3748 22.7083 20.4581 22.5833L22.0415 20.2083L22.8748 21.0833L23.7498 22.0833L23.7915 22.125V23.75Z" fill="#494B4D"/>
<path d="M33.5417 5.4165H6.04167C5.45833 5.4165 5 5.87484 5 6.45817V33.9582C5 34.5415 5.45833 34.9998 6.04167 34.9998H33.5417C34.125 34.9998 34.5833 34.5415 34.5833 33.9582V6.45817C34.5833 5.87484 34.125 5.4165 33.5417 5.4165ZM32.5 32.9165H20.8333V26.8332H18.75V32.9165H7.08333V7.49984H18.75V13.5832H20.8333V7.49984H32.5V32.9165Z" fill="#494B4D"/>
</svg>
