<svg width="28" height="28" viewBox="0 0 28 28" fill="none" xmlns="http://www.w3.org/2000/svg">
<path d="M11.0828 24.1791C9.97448 24.1791 9.07031 23.2749 9.07031 22.1666C9.07031 21.0582 9.97448 20.1541 11.0828 20.1541C12.1911 20.1541 13.0953 21.0582 13.0953 22.1666C13.0953 23.2749 12.1911 24.1791 11.0828 24.1791ZM11.0828 21.3207C10.6161 21.3207 10.237 21.6999 10.237 22.1666C10.237 22.6332 10.6161 23.0124 11.0828 23.0124C11.5495 23.0124 11.9286 22.6332 11.9286 22.1666C11.9286 21.6999 11.5495 21.3207 11.0828 21.3207Z" fill="#919699"/>
<path d="M19.6297 24.1791C18.5214 24.1791 17.6172 23.2749 17.6172 22.1666C17.6172 21.0582 18.5214 20.1541 19.6297 20.1541C20.738 20.1541 21.6422 21.0582 21.6422 22.1666C21.6422 23.2749 20.738 24.1791 19.6297 24.1791ZM19.6297 21.3207C19.163 21.3207 18.7839 21.6999 18.7839 22.1666C18.7839 22.6332 19.163 23.0124 19.6297 23.0124C20.0964 23.0124 20.4755 22.6332 20.4755 22.1666C20.4755 21.6999 20.0964 21.3207 19.6297 21.3207Z" fill="#919699"/>
<path d="M8.75 7.84595L8.80833 8.02095L8.75 7.84595Z" fill="#919699"/>
<path d="M10.4706 16.0126H12.3081H21.5248C21.7873 16.0126 22.0498 15.8084 22.1081 15.5459L23.9165 7.2626C23.9456 7.0876 23.9165 6.9126 23.7998 6.76677C23.6831 6.62093 23.5081 6.5626 23.3331 6.5626H22.8665L22.604 7.72926L21.0581 14.8459H10.4706H10.3248L8.80814 8.02093L8.8373 8.16677L8.80814 8.02093L8.7498 7.84593L8.4873 6.67926L7.9623 4.31676C7.90397 4.05426 7.67064 3.8501 7.37897 3.8501H4.25814C3.9373 3.8501 3.6748 4.1126 3.6748 4.43343C3.6748 4.75426 3.9373 5.01676 4.25814 5.01676H6.97064L7.49564 7.3501C7.49564 7.3501 7.49564 7.3501 7.49564 7.37926L9.24564 15.2543C8.7498 15.6626 8.45814 16.2459 8.45814 16.8876C8.45814 17.9959 9.3623 18.9001 10.4706 18.9001H21.554C21.8748 18.9001 22.1373 18.6376 22.1373 18.3168C22.1373 17.9959 21.8748 17.7334 21.554 17.7334H12.3081H10.4706C10.004 17.7334 9.6248 17.3543 9.6248 16.8876C9.6248 16.3918 10.004 16.0126 10.4706 16.0126Z" fill="#919699"/>
<path d="M19.892 13.9709H11.4337C11.2295 13.9709 11.0545 13.825 10.9962 13.6209L9.65449 7.23337C9.62533 7.1167 9.65449 6.97087 9.74199 6.8542C9.82949 6.73753 9.94616 6.6792 10.092 6.6792H21.2045C21.3503 6.6792 21.467 6.73753 21.5545 6.8542C21.642 6.97087 21.6712 7.08753 21.642 7.23337L20.3003 13.6209C20.2712 13.825 20.0962 13.9709 19.892 13.9709ZM11.8128 13.0959H19.542L20.6795 7.58337H10.6462L11.8128 13.0959Z" fill="#919699"/>
</svg>
