<svg width="40" height="40" viewBox="0 0 40 40" fill="none" xmlns="http://www.w3.org/2000/svg">
<path d="M20.6161 27.098C19.0023 25.8057 16.3855 25.8057 14.7716 27.098C13.1595 28.3908 13.1595 30.4859 14.7716 31.7787C16.3849 33.0715 19.0017 33.0715 20.6161 31.7787C22.2288 30.4859 22.2288 28.3908 20.6161 27.098Z" fill="#494B4D"/>
<path d="M14.4143 25.2337C15.665 23.68 15.2417 21.7173 13.4698 20.851C11.6974 19.9853 9.24793 20.5426 7.99723 22.0963C6.74817 23.6499 7.17036 25.6127 8.94168 26.4789C10.7147 27.3457 13.1647 26.7879 14.4143 25.2337Z" fill="#494B4D"/>
<path d="M12.7175 17.8225C13.9146 16.4848 13.6253 14.6982 12.0705 13.8319C10.5163 12.9651 8.28672 13.3469 7.08906 14.6845C5.89141 16.0222 6.18125 17.8083 7.73547 18.6745C9.28969 19.5413 11.5204 19.1596 12.7175 17.8225Z" fill="#494B4D"/>
<path d="M13.8204 13.0591C15.3068 13.9243 17.4675 13.5951 18.6454 12.3258C19.8239 11.0559 19.5751 9.32615 18.0893 8.46154C16.6034 7.59639 14.4427 7.92506 13.2647 9.19436C12.0857 10.4642 12.3345 12.194 13.8204 13.0591Z" fill="#494B4D"/>
<path d="M26.369 10.8513C27.6925 10.1748 27.8396 8.84588 26.6972 7.88174C25.5558 6.91759 23.5548 6.68408 22.2308 7.36002C20.9063 8.03595 20.7597 9.36541 21.9022 10.3295C23.0446 11.2937 25.0456 11.5272 26.369 10.8513Z" fill="#494B4D"/>
<path d="M31.1971 20.6557C30.0137 20.3079 28.9927 20.0071 28.7121 19.3109C28.5497 18.9073 28.6131 18.3145 28.8888 17.5495C31.8233 14.8041 36.2136 10.3805 36.09 8.58289C36.0408 7.8643 34.8956 6.83508 34.1448 6.83508L34.0857 6.83727C33.2731 6.89305 32.0311 7.9682 30.7044 9.42398C30.5931 9.09006 30.4501 8.76757 30.2773 8.46094C28.8855 6.06289 25.8257 4.6875 21.8833 4.6875C18.8181 4.6875 15.405 5.53242 12.0149 7.13094C7.66344 9.18281 4.41336 13.4616 3.73524 18.0323C3.23102 21.4263 3.83368 26.5592 9.56383 31.7452C12.1046 34.0459 16.1056 35.3125 20.8278 35.3125H20.8295C24.6204 35.3125 28.4611 34.4687 31.3683 32.9992C34.6173 31.3559 36.4061 29.083 36.4061 26.5986C36.4061 22.1875 33.395 21.3021 31.1971 20.6557ZM34.1448 7.65539C34.4898 7.65539 35.2533 8.3718 35.2713 8.63867C35.3758 10.1606 29.9541 15.555 26.3299 18.7717L25.712 18.2341L25.3078 17.8814C28.005 13.8575 32.6173 7.7593 34.1448 7.65539ZM23.9734 19.4859L24.8058 18.5316L25.7524 19.3574L24.9217 20.3112L23.9734 19.4859ZM30.875 32.0225C28.1155 33.4181 24.4547 34.2188 20.8295 34.2188H20.8284C16.3768 34.2188 12.6373 33.0523 10.2977 30.9342C4.92524 26.073 4.35157 21.3223 4.81586 18.1926C5.44258 13.974 8.45149 10.0206 12.4825 8.12023C15.7271 6.59008 18.9783 5.78125 21.8833 5.78125C25.374 5.78125 28.1576 6.9882 29.3306 9.01C29.5833 9.44477 29.7528 9.90961 29.8513 10.3963C27.4023 13.2855 24.9152 16.9878 24.4399 17.702L22.9213 19.4433C22.1239 19.4351 21.3255 19.7834 21.0794 20.6251C20.1727 23.7177 18.1531 25.6355 18.1531 25.6355C18.1531 25.6355 23.2723 24.6238 24.2518 23.4743C24.7823 22.852 25.0393 22.1082 25.0333 21.4301L26.6236 19.6068C26.8358 19.4203 27.1513 19.1398 27.5402 18.7887C27.538 19.1299 27.585 19.4416 27.6966 19.7195C28.1751 20.9073 29.4925 21.2945 30.8876 21.7046C33.0625 22.3445 35.3118 23.0056 35.3118 26.5986C35.3123 28.6494 33.7357 30.5755 30.875 32.0225Z" fill="#494B4D"/>
<path d="M32.0976 24.2694C30.4843 22.9771 27.867 22.9771 26.2537 24.2694C24.6404 25.5616 24.641 27.6573 26.2537 28.9501C27.8664 30.2429 30.4838 30.2423 32.0976 28.9501C33.7114 27.6578 33.7109 25.5616 32.0976 24.2694ZM31.303 28.313C30.1289 29.2541 28.2224 29.2541 27.0489 28.313C25.8747 27.3718 25.8747 25.8466 27.0489 24.9059C28.2224 23.9648 30.1289 23.9648 31.303 24.9059C32.4771 25.8471 32.4771 27.3718 31.303 28.313Z" fill="#494B4D"/>
</svg>
