<svg width="40" height="40" viewBox="0 0 40 40" fill="none" xmlns="http://www.w3.org/2000/svg">
<path d="M30.2917 21.4995L18.9167 10.1245L14.1251 5.37451C13.6667 4.91618 12.8751 4.91618 12.4167 5.37451C11.9584 5.83285 11.9584 6.62451 12.4167 7.08285L16.3334 10.9995L5.79175 21.4995C5.33341 21.9578 5.33341 22.7495 5.79175 23.2078L17.2084 34.6245C17.4584 34.8745 17.7501 34.9995 18.0834 34.9995C18.3751 34.9995 18.7084 34.8745 18.9584 34.6245L30.3751 23.2078C30.5834 22.9995 30.7501 22.6662 30.7501 22.3328C30.7501 21.9995 30.5417 21.7495 30.2917 21.4995ZM18.0417 12.7078L27.7084 22.3745H8.37508L18.0417 12.7078Z" fill="#494B4D"/>
<path d="M30.8753 34.958C29.2086 34.958 28.0836 34.4163 27.542 33.3747C26.167 30.6663 29.792 25.6247 30.2086 25.0413C30.3753 24.833 30.6253 24.708 30.8753 24.708C31.1253 24.708 31.3753 24.833 31.542 25.0413C31.9586 25.6247 35.5836 30.6663 34.2086 33.3747C33.667 34.458 32.542 34.958 30.8753 34.958ZM30.8753 26.958C29.6253 28.9163 28.4586 31.4997 29.0003 32.6247C29.2503 33.083 29.8753 33.333 30.8753 33.333C31.8753 33.333 32.5003 33.083 32.7503 32.6247C33.3336 31.5413 32.167 28.9163 30.8753 26.958Z" fill="#494B4D"/>
</svg>
