<svg width="40" height="40" viewBox="0 0 40 40" fill="none" xmlns="http://www.w3.org/2000/svg">
<path d="M20 12.5V35M20 12.5C21.25 7.56563 25.9711 5.0461 36.25 5.00001C36.4143 4.99939 36.5772 5.0313 36.7291 5.0939C36.881 5.1565 37.0191 5.24855 37.1353 5.36474C37.2515 5.48094 37.3435 5.61899 37.4061 5.77092C37.4687 5.92286 37.5006 6.08568 37.5 6.25001V28.75C37.5 29.0815 37.3683 29.3995 37.1339 29.6339C36.8995 29.8683 36.5815 30 36.25 30C26.25 30 22.3867 32.0164 20 35C17.6274 32.0313 13.75 30 3.75001 30C2.97813 30 2.50001 29.3711 2.50001 28.5992V6.25001C2.49939 6.08568 2.5313 5.92286 2.5939 5.77092C2.6565 5.61899 2.74855 5.48094 2.86474 5.36474C2.98094 5.24855 3.11899 5.1565 3.27092 5.0939C3.42286 5.0313 3.58568 4.99939 3.75001 5.00001C14.0289 5.0461 18.75 7.56563 20 12.5Z" stroke="white" stroke-width="2" stroke-linecap="round" stroke-linejoin="round"/>
</svg>
