<svg width="40" height="40" viewBox="0 0 40 40" fill="none" xmlns="http://www.w3.org/2000/svg">
<path d="M10.0417 25.9578C10.0417 24.1662 8.75004 22.7078 7.08337 22.3745V29.5412C8.75004 29.2078 10.0417 27.7495 10.0417 25.9578Z" fill="#494B4D"/>
<path d="M24.9583 9.70833C26.2916 9.70833 27.375 8.75 27.625 7.5H22.2916C22.5 8.75 23.625 9.70833 24.9583 9.70833Z" fill="#494B4D"/>
<path d="M29.8749 21.333C29.4166 21.333 29.0833 21.708 29.0833 22.1247C29.0833 22.583 29.4583 22.9163 29.8749 22.9163C30.3332 22.9163 30.6666 22.5413 30.6666 22.1247C30.6666 21.6663 30.3332 21.333 29.8749 21.333Z" fill="#494B4D"/>
<path d="M9.41663 9.125C10.1666 9.125 10.7916 8.5 10.7916 7.75C10.7916 7.66667 10.7916 7.58333 10.75 7.5H8.08329C8.08329 7.58333 8.04163 7.66667 8.04163 7.75C8.04163 8.5 8.66663 9.125 9.41663 9.125Z" fill="#494B4D"/>
<path d="M10.4584 15.083C10.0001 15.083 9.66675 15.458 9.66675 15.8747C9.66675 16.333 10.0417 16.6663 10.4584 16.6663C10.9167 16.6663 11.2501 16.2913 11.2501 15.8747C11.2501 15.458 10.8751 15.083 10.4584 15.083Z" fill="#494B4D"/>
<path d="M14.0835 30.083C13.6252 30.083 13.2919 30.458 13.2919 30.8747C13.2919 31.333 13.6669 31.6663 14.0835 31.6663C14.5419 31.6663 14.8752 31.2913 14.8752 30.8747C14.9169 30.458 14.5419 30.083 14.0835 30.083Z" fill="#494B4D"/>
<path d="M19.7917 32.0005C18.9584 32.0005 18.2084 32.3755 17.7917 32.9172H21.7917C21.3751 32.3755 20.6251 32.0005 19.7917 32.0005Z" fill="#494B4D"/>
<path d="M17.7085 10.1665C16.9585 9.74988 16.0001 9.99988 15.5835 10.7499C15.4585 10.9582 15.4168 11.1665 15.3751 11.3749H18.5001C18.4168 10.8749 18.1668 10.4165 17.7085 10.1665Z" fill="#494B4D"/>
<path d="M28.6668 30.7505C27.2501 30.7505 26.0001 31.6255 25.5001 32.9172H31.7918C31.3335 31.6672 30.0835 30.7505 28.6668 30.7505Z" fill="#494B4D"/>
<path d="M30.7084 13.7082C30.7084 14.7915 31.5 15.6665 32.5 15.8748V11.5415C31.4584 11.7082 30.7084 12.6248 30.7084 13.7082Z" fill="#494B4D"/>
<path d="M26.4165 23.292H13.1665V24.9587H26.4165V23.292Z" fill="#494B4D"/>
<path d="M26.4165 26.6665H13.1665V28.3332H26.4165V26.6665Z" fill="#494B4D"/>
<path d="M26.4165 11.333H18.4998H15.3748H13.1665C12.7081 11.333 12.3331 11.708 12.3331 12.1663V19.583C12.3331 20.0413 12.7081 20.4163 13.1665 20.4163H26.4165C26.8748 20.4163 27.2498 20.0413 27.2498 19.583V12.1663C27.2498 11.708 26.8748 11.333 26.4165 11.333ZM25.5831 18.7913H13.9998V12.9997H16.5831H17.2498H25.5831V18.7913Z" fill="#494B4D"/>
<path d="M33.5417 34.9998H6.04167C5.45833 34.9998 5 34.5415 5 33.9582V6.45817C5 5.87484 5.45833 5.4165 6.04167 5.4165H33.5417C34.125 5.4165 34.5833 5.87484 34.5833 6.45817V33.9582C34.5833 34.5415 34.125 34.9998 33.5417 34.9998ZM7.08333 32.9165H32.5V7.49984H7.08333V32.9165Z" fill="#494B4D"/>
</svg>
