<svg id="Layer_1" data-name="Layer 1" xmlns="http://www.w3.org/2000/svg" viewBox="0 0 84.67 84.67"><defs><style>.cls-1{fill:#494b4d;}.cls-2{fill:#fff;}</style></defs><title>Square</title><path class="cls-1" d="M103.48,21.17h-80a2.36,2.36,0,0,0-2.35,2.35v80a2.35,2.35,0,0,0,2.35,2.35h80a2.35,2.35,0,0,0,2.35-2.35v-80A2.35,2.35,0,0,0,103.48,21.17ZM91.72,75.26a2.36,2.36,0,0,1-2.35,2.35H37.63a2.36,2.36,0,0,1-2.35-2.35V37.63a2.36,2.36,0,0,1,2.35-2.35H89.37a2.36,2.36,0,0,1,2.35,2.35Z" transform="translate(-21.17 -21.17)"/><path class="cls-1" d="M41.16,71.61c-.83.94-.47,1.77.82,1.77H85.14c1.29,0,1.88-.94,1.17-2.12L75,50.8a1.42,1.42,0,0,0-2.58-.24L62.79,62.21a3.07,3.07,0,0,1-3.52.7l-4.71-2.7a3.22,3.22,0,0,0-3.64.58Z" transform="translate(-21.17 -21.17)"/><path class="cls-1" d="M47.74,51.74a5.18,5.18,0,1,0-5.17-5.17A5.18,5.18,0,0,0,47.74,51.74Z" transform="translate(-21.17 -21.17)"/><path class="cls-2" d="M66.09,92.55a2.68,2.68,0,0,1-1.3,4.82,19.67,19.67,0,0,1-3.76,0c-.47,0-.71-.36-.71-.83V88.9c0-.47.36-.7.83-.82h3.29A2.47,2.47,0,0,1,66.32,92,.73.73,0,0,1,66.09,92.55ZM62,96h2.47a1.09,1.09,0,0,0,1.18-1.06,1.12,1.12,0,0,0-1.06-1.3,20.35,20.35,0,0,0-2.59,0Zm0-6v2.12h2.35A1,1,0,0,0,65.26,91c0-.59-.23-.94-.7-.94A9.6,9.6,0,0,0,62,90Z" transform="translate(-21.17 -21.17)"/><path class="cls-2" d="M54.68,95.13H53.5a.64.64,0,0,0-.7.47A7.05,7.05,0,0,1,52.21,97a.89.89,0,0,1-1.06.59.74.74,0,0,1-.35-1.06c1.06-2.47,2-4.93,3.06-7.4a.77.77,0,0,1,.82-.59.75.75,0,0,1,.71.59c1,2.47,2,4.93,3,7.4a.74.74,0,0,1-.35,1.06c-.47.24-.82,0-1.06-.59s-.35-1.05-.59-1.52a1.47,1.47,0,0,0-.47-.36Zm.94-1.53c-.35-.82-.7-1.64-1.06-2.58-.35.94-.7,1.64-1.06,2.58Z" transform="translate(-21.17 -21.17)"/><path class="cls-2" d="M68.56,92.66a4.6,4.6,0,0,1,7-3.76c.59.35.71.71.35,1.18a.76.76,0,0,1-1.17.11,3,3,0,0,0-3.88.47,3.73,3.73,0,0,0-.24,4.24,3,3,0,0,0,3.88.82c.12-.12.24-.12.47-.23a.8.8,0,0,1,1.06.35c.24.35.12.7-.23,1.06a5.37,5.37,0,0,1-2.94.82C70.44,97.48,68.67,95.49,68.56,92.66Z" transform="translate(-21.17 -21.17)"/></svg>