<svg width="40" height="40" viewBox="0 0 40 40" fill="none" xmlns="http://www.w3.org/2000/svg">
<path d="M23.333 6.25H6.66634H5.83301V33.75H33.7497V16.25H23.333V6.25Z" stroke="#494B4D" stroke-width="2" stroke-linejoin="round"/>
<path d="M29.2923 24.2914C29.2923 24.7498 28.9173 25.1248 28.459 25.1248H21.4173C20.959 25.1248 20.584 24.7498 20.584 24.2914V21.3331C20.584 20.8748 20.959 20.4998 21.4173 20.4998H28.459C28.9173 20.4998 29.2923 20.8748 29.2923 21.3331V24.2914Z" fill="#494B4D"/>
<path d="M19.0413 13.8332C19.0413 14.2915 18.6663 14.6665 18.208 14.6665H11.1663C10.708 14.6665 10.333 14.2915 10.333 13.8332V10.8748C10.333 10.4165 10.708 10.0415 11.1663 10.0415H18.208C18.6663 10.0415 19.0413 10.4165 19.0413 10.8748V13.8332Z" fill="#494B4D"/>
<path d="M24.167 16.25H16.667L16.667 33.3333" stroke="#494B4D" stroke-width="2" stroke-linejoin="round"/>
</svg>
