<svg width="28" height="28" viewBox="0 0 28 28" fill="none" xmlns="http://www.w3.org/2000/svg">
<path d="M6.41667 7.58342H4.08333C3.7625 7.58342 3.5 7.32091 3.5 7.00008C3.5 6.67925 3.7625 6.41675 4.08333 6.41675H6.41667C6.7375 6.41675 7 6.67925 7 7.00008C7 7.32091 6.7375 7.58342 6.41667 7.58342Z" fill="#919699"/>
<path d="M6.41667 10.3542H4.08333C3.7625 10.3542 3.5 10.0917 3.5 9.77083C3.5 9.45 3.7625 9.1875 4.08333 9.1875H6.41667C6.7375 9.1875 7 9.45 7 9.77083C7 10.0917 6.7375 10.3542 6.41667 10.3542Z" fill="#919699"/>
<path d="M6.41667 13.154H4.08333C3.7625 13.154 3.5 12.8915 3.5 12.5706C3.5 12.2498 3.7625 11.9873 4.08333 11.9873H6.41667C6.7375 11.9873 7 12.2498 7 12.5706C7 12.8915 6.7375 13.154 6.41667 13.154Z" fill="#919699"/>
<path d="M6.41667 15.9833H4.08333C3.7625 15.9833 3.5 15.7208 3.5 15.4C3.5 15.0792 3.7625 14.8167 4.08333 14.8167H6.41667C6.7375 14.8167 7 15.0792 7 15.4C7 15.7208 6.7375 15.9833 6.41667 15.9833Z" fill="#919699"/>
<path d="M6.41667 18.7541H4.08333C3.7625 18.7541 3.5 18.4916 3.5 18.1707C3.5 17.8499 3.7625 17.5874 4.08333 17.5874H6.41667C6.7375 17.5874 7 17.8499 7 18.1707C7 18.4916 6.7375 18.7541 6.41667 18.7541Z" fill="#919699"/>
<path d="M6.41667 21.5251H4.08333C3.7625 21.5251 3.5 21.2626 3.5 20.9417C3.5 20.6209 3.7625 20.3584 4.08333 20.3584H6.41667C6.7375 20.3584 7 20.6209 7 20.9417C7 21.2626 6.7375 21.5251 6.41667 21.5251Z" fill="#919699"/>
<path d="M23.8875 3.52905H5.25V4.69572H23.275V23.2749H5.25V24.4416H23.8583C24.1792 24.4416 24.4417 24.1791 24.4417 23.8582V4.11239C24.4708 3.79155 24.2083 3.52905 23.8875 3.52905Z" fill="#919699"/>
<path d="M20.9122 18.6375C20.6788 16.7416 19.2788 15.1666 17.3538 14.4666C18.1413 13.825 18.6372 12.8333 18.6372 11.725C18.6372 9.7708 17.0622 8.1958 15.108 8.1958C13.1538 8.1958 11.5788 9.7708 11.5788 11.725C11.5788 12.8333 12.0747 13.7958 12.8622 14.4666C13.4163 14.9041 14.1163 15.1958 14.8455 15.2541C14.933 15.2541 14.9913 15.2541 15.0788 15.2541C15.1663 15.2541 15.2247 15.2541 15.3122 15.2541C17.558 15.3416 19.3663 16.8 19.6872 18.6375H10.5288C10.733 17.5 11.4913 16.5083 12.5705 15.8958L11.7247 15.05C10.4413 15.8666 9.53717 17.1791 9.36217 18.6375C9.33301 18.8125 9.33301 19.0166 9.33301 19.1916C9.33301 19.3958 9.36217 19.6 9.39134 19.8041H10.5872H19.7455H20.9413C20.9705 19.6 20.9997 19.3958 20.9997 19.1916C20.9413 19.0166 20.9413 18.8125 20.9122 18.6375ZM15.3705 14.0875C15.283 14.0875 15.2247 14.0875 15.1372 14.0875C15.0497 14.0875 14.9913 14.0875 14.9038 14.0875C13.708 13.9708 12.7747 12.9791 12.7747 11.7541C12.7747 10.4416 13.8247 9.39163 15.1372 9.39163C16.4497 9.39163 17.4997 10.4416 17.4997 11.7541C17.4997 12.95 16.5372 13.9708 15.3705 14.0875Z" fill="#919699"/>
</svg>
