<svg width="24" height="24" viewBox="0 0 24 24" fill="none" xmlns="http://www.w3.org/2000/svg">
<path d="M20.8924 19.0124L9.43613 7.51865C9.29082 7.37334 9.05176 7.37334 8.90645 7.51865L7.56113 8.86865C7.41582 9.01397 7.41582 9.25303 7.56113 9.39834L19.0174 20.8921C19.1627 21.0374 19.4018 21.0374 19.5471 20.8921L20.8877 19.5421C21.0377 19.3968 21.0377 19.1577 20.8924 19.0124ZM19.6971 19.6827L19.6924 19.6874C19.5471 19.8327 19.308 19.8327 19.1627 19.6874L10.2611 10.7577C10.1158 10.6124 10.1158 10.3733 10.2611 10.228L10.2658 10.2233C10.4111 10.078 10.6502 10.078 10.7955 10.2233L19.6971 19.153C19.8424 19.2983 19.8424 19.5374 19.6971 19.6827Z" fill="white"/>
<path d="M9.03711 5.62969C9.34648 5.62969 9.59961 5.37656 9.59961 5.06719V3.5625C9.59961 3.25312 9.34648 3 9.03711 3C8.72773 3 8.47461 3.25312 8.47461 3.5625V5.06719C8.47461 5.37656 8.72773 5.62969 9.03711 5.62969Z" fill="white"/>
<path d="M9.03711 12.3423C8.72773 12.3423 8.47461 12.5954 8.47461 12.9048V14.4095C8.47461 14.7188 8.72773 14.972 9.03711 14.972C9.34648 14.972 9.59961 14.7188 9.59961 14.4095V12.9048C9.59961 12.5954 9.34648 12.3423 9.03711 12.3423Z" fill="white"/>
<path d="M12.6895 8.91553C12.6895 9.2249 12.9426 9.47803 13.252 9.47803H14.752C15.0613 9.47803 15.3145 9.2249 15.3145 8.91553C15.3145 8.60615 15.0613 8.35303 14.752 8.35303H13.252C12.9426 8.35303 12.6895 8.60615 12.6895 8.91553Z" fill="white"/>
<path d="M5.62031 8.91553C5.62031 8.60615 5.36719 8.35303 5.05781 8.35303H3.5625C3.25313 8.35303 3 8.60615 3 8.91553C3 9.2249 3.25313 9.47803 3.5625 9.47803H5.0625C5.36719 9.47803 5.62031 9.2249 5.62031 8.91553Z" fill="white"/>
<path d="M5.85 6.60938C5.95781 6.71719 6.09844 6.77344 6.24844 6.77344C6.39844 6.77344 6.53906 6.7125 6.64687 6.60938C6.86719 6.38906 6.86719 6.03281 6.64687 5.8125L5.66719 4.82812C5.55937 4.72031 5.41875 4.66406 5.26875 4.66406C5.11875 4.66406 4.97812 4.725 4.87031 4.82812C4.65 5.04844 4.65 5.40469 4.87031 5.625L5.85 6.60938Z" fill="white"/>
<path d="M6.24824 11.2451C6.09824 11.2451 5.95762 11.3061 5.8498 11.4092L4.87012 12.3936C4.7623 12.5014 4.70605 12.642 4.70605 12.792C4.70605 12.942 4.7623 13.0826 4.87012 13.1904C4.97793 13.2982 5.11855 13.3545 5.26855 13.3545C5.41855 13.3545 5.55918 13.2936 5.66699 13.1904L6.64668 12.2061C6.86699 11.9857 6.86699 11.6295 6.64668 11.4092C6.53887 11.3061 6.39824 11.2451 6.24824 11.2451Z" fill="white"/>
<path d="M11.8311 6.77344C11.9811 6.77344 12.1217 6.7125 12.2295 6.60938L13.2092 5.625C13.4295 5.40469 13.4295 5.04844 13.2092 4.82812C13.1014 4.72031 12.9607 4.66406 12.8107 4.66406C12.6607 4.66406 12.5201 4.725 12.4123 4.82812L11.4326 5.8125C11.3248 5.92031 11.2686 6.06094 11.2686 6.21094C11.2686 6.36094 11.3248 6.50156 11.4326 6.60938C11.5404 6.7125 11.6811 6.77344 11.8311 6.77344Z" fill="white"/>
</svg>
