<svg width="33" height="33" viewBox="0 0 33 33" fill="none" xmlns="http://www.w3.org/2000/svg">
<path d="M30.9555 25.6449L29.5747 20.4852L25.2252 4.99278C25.1312 4.65104 24.9011 4.35929 24.5854 4.1814C24.2696 4.00352 23.8939 3.95402 23.5406 4.04372L18.1969 5.38043C18.0693 5.24361 17.914 5.1338 17.7405 5.05789C17.567 4.98198 17.3792 4.94161 17.1889 4.93932H3.38081C3.01459 4.93932 2.66338 5.08015 2.40443 5.33083C2.14548 5.58151 2 5.9215 2 6.27602V27.6633C2 28.0178 2.14548 28.3578 2.40443 28.6085C2.66338 28.8592 3.01459 29 3.38081 29H17.1889C17.5551 29 17.9063 28.8592 18.1652 28.6085C18.4242 28.3578 18.5697 28.0178 18.5697 27.6633V16.9697L21.6075 27.9574C21.6884 28.249 21.8689 28.5055 22.1196 28.6851C22.3704 28.8647 22.6765 28.9569 22.9883 28.9465C23.1075 28.9597 23.228 28.9597 23.3473 28.9465L30.0166 27.2222C30.1929 27.1765 30.3581 27.0975 30.5027 26.9897C30.6473 26.8819 30.7683 26.7473 30.8589 26.5939C31.0045 26.2982 31.0387 25.9625 30.9555 25.6449ZM8.86261 26.3801H4.72019V23.7067H8.86261V26.3801ZM8.86261 21.0332H4.72019V13.013H8.86261V21.0332ZM8.86261 10.3396H4.72019V7.66619H8.86261V10.3396ZM15.7666 26.3801H11.6242V23.7067H15.7666V26.3801ZM15.7666 21.0332H11.6242V13.013H15.7666V21.0332ZM15.7666 10.3396H11.6242V7.66619H15.7666V10.3396ZM18.8735 8.01374L22.8778 6.97111L23.5958 9.55095L19.5915 10.5936L18.8735 8.01374ZM22.4497 20.9263L20.3095 13.1734L24.3138 12.1308L26.4541 19.8837L22.4497 20.9263ZM23.8306 26.086L23.1125 23.5061L27.1169 22.4635L27.8349 25.0434L23.8306 26.086Z" fill="#494B4D"/>
</svg>
