<svg width="48" height="48" viewBox="0 0 48 48" fill="none" xmlns="http://www.w3.org/2000/svg">
<path d="M23.5998 32.65C23.2998 32.65 23.0498 32.55 22.7998 32.35C22.5998 32.15 22.4998 31.9 22.4998 31.55C22.4998 31.25 22.5998 30.95 22.7998 30.75C22.9998 30.55 23.2498 30.45 23.5998 30.45C23.8998 30.45 24.1998 30.55 24.3998 30.75C24.5998 30.95 24.6998 31.25 24.6998 31.55C24.6998 31.85 24.5998 32.1 24.3998 32.35C24.1998 32.55 23.9498 32.65 23.5998 32.65ZM23.7498 29.35H23.4998C22.9498 29.35 22.4998 28.95 22.4998 28.35V26.55C22.4998 25.75 22.6998 25.1 23.0998 24.55C23.4498 24.1 23.9498 23.6 24.5998 23C25.0498 22.6 25.3998 22.3 25.6498 22C25.8498 21.75 26.0498 21.5 26.1998 21.1C26.3498 20.75 26.4498 20.35 26.4498 19.9C26.4498 19.1 26.2498 18.5 25.7998 18.05C25.3498 17.6 24.7998 17.4 23.9998 17.4C23.1998 17.4 22.6498 17.6 22.1998 18.05C21.7498 18.5 21.5498 19.1 21.5498 19.85V20.75C21.5498 21.3 21.1498 21.75 20.5498 21.75H20.2998C19.7498 21.75 19.2998 21.35 19.2998 20.75V20C19.2998 18.65 19.7498 17.5 20.5998 16.65C21.4498 15.8 22.5998 15.35 23.9998 15.35C25.3998 15.35 26.4998 15.8 27.3998 16.65C28.2498 17.5 28.6998 18.65 28.6998 20.05C28.6998 20.85 28.5498 21.55 28.2998 22.15C28.0498 22.75 27.7498 23.25 27.3498 23.6C26.9998 23.95 26.5998 24.35 26.0498 24.8C25.4998 25.25 25.1498 25.55 24.9498 25.85C24.7998 26.05 24.7498 26.25 24.7498 26.6V28.35C24.7498 28.95 24.2998 29.35 23.7498 29.35Z" fill="white"/>
<circle cx="24" cy="24" r="17" stroke="white" stroke-width="2"/>
</svg>
