<svg width="15" height="15" viewBox="0 0 15 15" fill="none" xmlns="http://www.w3.org/2000/svg">
<path d="M10.2994 3.5825V2.23907C10.2994 1.98531 10.1054 1.79126 9.8516 1.79126H7.16474H4.47788C4.22412 1.79126 4.03007 1.98531 4.03007 2.23907V3.5825H1.79102V4.47812H12.5385V3.5825H10.2994ZM4.92569 2.68688H7.16474H9.40379V3.5825H4.92569V2.68688Z" fill="white"/>
<path d="M10.6431 5.25439C10.3893 5.25439 10.1952 5.44845 10.1952 5.7022V11.7476H7.16506H4.13488V5.7022C4.13488 5.44845 3.94083 5.25439 3.68707 5.25439C3.43331 5.25439 3.23926 5.44845 3.23926 5.7022V12.1955C3.23926 12.4492 3.43331 12.6433 3.68707 12.6433H7.16506H10.6431C10.8968 12.6433 11.0909 12.4492 11.0909 12.1955V5.7022C11.0909 5.44845 10.8819 5.25439 10.6431 5.25439Z" fill="white"/>
<path d="M6.01568 10.2249C5.76192 10.2249 5.56787 10.0309 5.56787 9.7771V5.67218C5.56787 5.41842 5.76192 5.22437 6.01568 5.22437C6.26944 5.22437 6.46349 5.41842 6.46349 5.67218V9.7771C6.46349 10.0309 6.25451 10.2249 6.01568 10.2249Z" fill="white"/>
<path d="M8.31451 10.2249C8.06075 10.2249 7.8667 10.0309 7.8667 9.7771V5.67218C7.8667 5.41842 8.06075 5.22437 8.31451 5.22437C8.56827 5.22437 8.76232 5.41842 8.76232 5.67218V9.7771C8.76232 10.0309 8.56827 10.2249 8.31451 10.2249Z" fill="white"/>
</svg>
