<svg width="40" height="40" viewBox="0 0 40 40" fill="none" xmlns="http://www.w3.org/2000/svg">
<path d="M26.5849 10.3184C24.9499 8.7312 23.1874 7.45901 21.7399 7.28464C21.6583 7.27248 21.5759 7.26622 21.4933 7.26589H11.973C11.8971 7.26526 11.8217 7.27988 11.7515 7.30886C11.6813 7.33785 11.6176 7.38061 11.5643 7.43464C11.4567 7.54356 11.3961 7.69031 11.3955 7.84339V31.984C11.3955 32.0598 11.4105 32.1349 11.4395 32.2049C11.4685 32.2749 11.5111 32.3385 11.5647 32.392C11.6183 32.4456 11.682 32.488 11.7521 32.517C11.8221 32.5459 11.8972 32.5607 11.973 32.5606H29.1893C29.2649 32.5607 29.3398 32.5459 29.4096 32.517C29.4794 32.488 29.5428 32.4455 29.5961 32.3918C29.6501 32.3385 29.6929 32.275 29.7222 32.205C29.7515 32.135 29.7666 32.0599 29.7668 31.984V15.92C29.733 14.0543 28.2724 12.0218 26.5849 10.3184ZM28.6099 31.4028H12.5486V8.41901H21.4943V8.42089C21.8843 8.39745 22.2208 8.78276 22.4786 9.66401C22.713 10.5031 22.7721 11.5971 22.7711 12.3546C22.773 12.9115 22.7458 13.2846 22.7458 13.2846L22.6989 13.8959L23.3139 13.9025C23.3168 13.9025 24.7352 13.9193 26.1264 14.2353C27.4633 14.524 28.5077 15.0996 28.6061 15.7512C28.6108 15.8093 28.6118 15.8675 28.6108 15.9218V31.4037L28.6099 31.4028Z" fill="white" stroke="white" stroke-width="0.6"/>
</svg>
